<svg xmlns="http://www.w3.org/2000/svg" xmlns:xlink="http://www.w3.org/1999/xlink" fill-rule="nonzero" viewBox="20.29 20.3 215.41 215.41"><defs><linearGradient x1="2.45384" y1="28.47377" x2="14.02382" y2="40.18407" gradientUnits="userSpaceOnUse" id="color-1"><stop offset="0" stop-color="#4c4c4c"/><stop offset="1" stop-color="#343434"/></linearGradient><linearGradient x1="11.06156" y1="5.60097" x2="16.27934" y2="10.88127" gradientUnits="userSpaceOnUse" id="color-2"><stop offset="0" stop-color="#4c4c4c"/><stop offset="1" stop-color="#343434"/></linearGradient><linearGradient x1="33.97326" y1="7.81759" x2="45.54324" y2="19.52789" gradientUnits="userSpaceOnUse" id="color-3"><stop offset="0" stop-color="#4c4c4c"/><stop offset="1" stop-color="#343434"/></linearGradient><linearGradient x1="31.71774" y1="37.12039" x2="36.93552" y2="42.40069" gradientUnits="userSpaceOnUse" id="color-4"><stop offset="0" stop-color="#4c4c4c"/><stop offset="1" stop-color="#343434"/></linearGradient></defs><g fill="none" fill-rule="nonzero" stroke="none" stroke-width="1" stroke-linecap="butt" stroke-linejoin="miter" stroke-miterlimit="10" stroke-dasharray="" stroke-dashoffset="0" font-family="none" font-weight="none" font-size="none" text-anchor="none" style="mix-blend-mode: normal"><g transform="scale(5.33333,5.33333)"><circle cx="24" cy="24" r="17" fill="#004d3d"/><circle cx="19.886" cy="16.579" r="4.5" fill="#ffffff"/><path d="M19.884,12.077c0.411,0 0.828,0.057 1.242,0.175c2.389,0.685 3.77,3.177 3.085,5.566c-0.566,1.974 -2.367,3.261 -4.324,3.261c-0.411,0 -0.828,-0.057 -1.242,-0.175c-2.389,-0.685 -3.77,-3.177 -3.085,-5.566c0.567,-1.974 2.368,-3.26 4.324,-3.261M19.884,11.577v0c-2.217,0 -4.193,1.49 -4.804,3.623c-0.76,2.65 0.778,5.425 3.428,6.184c0.451,0.129 0.915,0.195 1.38,0.195c2.217,0 4.193,-1.49 4.804,-3.623c0.76,-2.65 -0.778,-5.425 -3.428,-6.184c-0.45,-0.129 -0.915,-0.195 -1.38,-0.195z" fill="#000000" opacity="0.07"/><path d="M19.884,12.077c0.411,0 0.828,0.057 1.242,0.175c2.389,0.685 3.77,3.177 3.085,5.566c-0.566,1.974 -2.367,3.261 -4.324,3.261c-0.411,0 -0.828,-0.057 -1.242,-0.175c-2.389,-0.685 -3.77,-3.177 -3.085,-5.566c0.567,-1.974 2.368,-3.26 4.324,-3.261M19.884,11.077v0c-2.439,0 -4.612,1.639 -5.285,3.985c-0.836,2.915 0.856,5.967 3.771,6.803c0.496,0.142 1.006,0.214 1.518,0.214c2.439,0 4.612,-1.639 5.285,-3.985c0.836,-2.915 -0.856,-5.967 -3.771,-6.803c-0.495,-0.141 -1.006,-0.214 -1.518,-0.214z" fill="#000000" opacity="0.05"/><circle cx="24" cy="24" r="2" fill="#ffffff"/><path d="M23.999,21.999c0.183,0 0.368,0.025 0.553,0.078c1.062,0.305 1.676,1.412 1.371,2.474c-0.252,0.878 -1.052,1.449 -1.921,1.449c-0.183,0 -0.368,-0.025 -0.553,-0.078c-1.062,-0.305 -1.676,-1.412 -1.371,-2.474c0.251,-0.877 1.051,-1.449 1.921,-1.449M23.999,21.499v0c-1.108,0 -2.096,0.745 -2.402,1.812c-0.38,1.325 0.389,2.712 1.714,3.092c0.225,0.065 0.458,0.097 0.69,0.097c1.108,0 2.096,-0.745 2.402,-1.811c0.38,-1.325 -0.389,-2.712 -1.714,-3.092c-0.225,-0.065 -0.458,-0.098 -0.69,-0.098z" fill="#000000" opacity="0.07"/><path d="M23.999,21.999c0.183,0 0.368,0.025 0.553,0.078c1.062,0.305 1.676,1.412 1.371,2.474c-0.252,0.878 -1.052,1.449 -1.921,1.449c-0.183,0 -0.368,-0.025 -0.553,-0.078c-1.062,-0.305 -1.676,-1.412 -1.371,-2.474c0.251,-0.877 1.051,-1.449 1.921,-1.449M23.999,20.999v0c-1.33,0 -2.515,0.894 -2.882,2.174c-0.456,1.59 0.467,3.255 2.057,3.711c0.27,0.078 0.549,0.117 0.828,0.117c1.33,0 2.515,-0.894 2.882,-2.174c0.456,-1.59 -0.467,-3.255 -2.057,-3.711c-0.27,-0.077 -0.549,-0.117 -0.828,-0.117z" fill="#000000" opacity="0.05"/><circle cx="31.421" cy="19.886" r="4.5" fill="#ffffff"/><path d="M31.419,15.385c0.411,0 0.828,0.057 1.242,0.175c2.389,0.685 3.77,3.177 3.085,5.566c-0.566,1.974 -2.367,3.261 -4.324,3.261c-0.411,0 -0.828,-0.057 -1.242,-0.175c-2.389,-0.685 -3.77,-3.177 -3.085,-5.566c0.567,-1.975 2.368,-3.261 4.324,-3.261M31.419,14.885v0c-2.217,0 -4.193,1.49 -4.804,3.623c-0.76,2.65 0.778,5.425 3.428,6.184c0.451,0.129 0.915,0.195 1.38,0.195c2.217,0 4.193,-1.49 4.804,-3.623c0.76,-2.65 -0.778,-5.425 -3.428,-6.184c-0.45,-0.129 -0.915,-0.195 -1.38,-0.195z" fill="#000000" opacity="0.07"/><path d="M31.419,15.385c0.411,0 0.828,0.057 1.242,0.175c2.389,0.685 3.77,3.177 3.085,5.566c-0.566,1.974 -2.367,3.261 -4.324,3.261c-0.411,0 -0.828,-0.057 -1.242,-0.175c-2.389,-0.685 -3.77,-3.177 -3.085,-5.566c0.567,-1.975 2.368,-3.261 4.324,-3.261M31.419,14.385v0c-2.439,0 -4.612,1.639 -5.285,3.985c-0.836,2.915 0.856,5.967 3.771,6.803c0.496,0.142 1.006,0.214 1.518,0.214c2.439,0 4.612,-1.639 5.285,-3.985c0.836,-2.915 -0.856,-5.967 -3.771,-6.803c-0.495,-0.142 -1.006,-0.214 -1.518,-0.214z" fill="#000000" opacity="0.05"/><circle cx="16.579" cy="28.114" r="4.5" fill="#ffffff"/><path d="M16.577,23.613c0.411,0 0.828,0.057 1.242,0.175c2.389,0.685 3.77,3.177 3.085,5.566c-0.566,1.974 -2.367,3.261 -4.324,3.261c-0.411,0 -0.828,-0.057 -1.242,-0.175c-2.389,-0.685 -3.77,-3.177 -3.085,-5.566c0.566,-1.975 2.367,-3.261 4.324,-3.261M16.577,23.113v0c-2.217,0 -4.193,1.49 -4.804,3.623c-0.76,2.65 0.778,5.425 3.428,6.184c0.451,0.129 0.915,0.195 1.38,0.195c2.217,0 4.193,-1.49 4.804,-3.623c0.76,-2.65 -0.778,-5.425 -3.428,-6.184c-0.451,-0.13 -0.915,-0.195 -1.38,-0.195z" fill="#000000" opacity="0.07"/><path d="M16.577,23.613c0.411,0 0.828,0.057 1.242,0.175c2.389,0.685 3.77,3.177 3.085,5.566c-0.566,1.974 -2.367,3.261 -4.324,3.261c-0.411,0 -0.828,-0.057 -1.242,-0.175c-2.389,-0.685 -3.77,-3.177 -3.085,-5.566c0.566,-1.975 2.367,-3.261 4.324,-3.261M16.577,22.613v0c-2.439,0 -4.612,1.639 -5.285,3.985c-0.836,2.915 0.856,5.967 3.771,6.803c0.496,0.142 1.006,0.214 1.518,0.214c2.439,0 4.612,-1.639 5.285,-3.985c0.836,-2.915 -0.856,-5.967 -3.771,-6.803c-0.496,-0.142 -1.007,-0.214 -1.518,-0.214z" fill="#000000" opacity="0.05"/><circle cx="28.114" cy="31.421" r="4.5" fill="#ffffff"/><path d="M28.112,26.92c0.411,0 0.828,0.057 1.242,0.175c2.389,0.685 3.77,3.177 3.085,5.566c-0.566,1.974 -2.367,3.261 -4.324,3.261c-0.411,0 -0.828,-0.057 -1.242,-0.175c-2.389,-0.685 -3.77,-3.177 -3.085,-5.566c0.566,-1.974 2.367,-3.261 4.324,-3.261M28.112,26.42v0c-2.217,0 -4.193,1.49 -4.804,3.623c-0.76,2.65 0.778,5.425 3.428,6.184c0.451,0.129 0.915,0.195 1.38,0.195c2.217,0 4.193,-1.49 4.804,-3.623c0.76,-2.65 -0.778,-5.425 -3.428,-6.184c-0.451,-0.129 -0.915,-0.195 -1.38,-0.195z" fill="#000000" opacity="0.07"/><path d="M28.112,26.92c0.411,0 0.828,0.057 1.242,0.175c2.389,0.685 3.77,3.177 3.085,5.566c-0.566,1.974 -2.367,3.261 -4.324,3.261c-0.411,0 -0.828,-0.057 -1.242,-0.175c-2.389,-0.685 -3.77,-3.177 -3.085,-5.566c0.566,-1.974 2.367,-3.261 4.324,-3.261M28.112,25.92v0c-2.439,0 -4.612,1.639 -5.285,3.985c-0.836,2.915 0.856,5.967 3.771,6.803c0.496,0.142 1.006,0.214 1.518,0.214c2.439,0 4.612,-1.639 5.285,-3.985c0.836,-2.915 -0.856,-5.967 -3.771,-6.803c-0.496,-0.142 -1.007,-0.214 -1.518,-0.214z" fill="#000000" opacity="0.05"/><path d="M14.036,40.173l-4.804,-1.109c-3.771,-0.871 -6.116,-4.624 -5.246,-8.395l1.109,-4.804c0.571,5.889 3.898,11.214 8.941,14.308z" fill="url(#color-1)"/><path d="M17.331,3.987l4.804,1.109c-5.889,0.57 -11.214,3.897 -14.308,8.941l1.109,-4.804c0.87,-3.771 4.624,-6.117 8.395,-5.246z" fill="url(#color-2)"/><path d="M44.013,17.331l-1.109,4.804c-0.57,-5.889 -3.897,-11.214 -8.941,-14.308l4.804,1.109c3.771,0.87 6.117,4.624 5.246,8.395z" fill="url(#color-3)"/><path d="M40.173,33.964l-1.109,4.804c-0.871,3.771 -4.624,6.116 -8.395,5.246l-4.804,-1.109c5.889,-0.571 11.214,-3.898 14.308,-8.941z" fill="url(#color-4)"/></g></g></svg>