<?xml version="1.0" encoding="utf-8"?>
<!-- Generator: Adobe Illustrator 27.0.1, SVG Export Plug-In . SVG Version: 6.00 Build 0)  -->
<svg version="1.1" id="Layer_1" xmlns="http://www.w3.org/2000/svg" xmlns:xlink="http://www.w3.org/1999/xlink" x="0px" y="0px"
	 viewBox="0 0 74 10" style="enable-background:new 0 0 74 10;" xml:space="preserve">
<style type="text/css">
	.st0{clip-path:url(#SVGID_00000141426824319283498140000000555108292955343770_);}
	.st1{fill:#98A2B3;}
</style>
<g>
	<defs>
		<rect id="SVGID_1_" x="0" width="73.8" height="10"/>
	</defs>
	<clipPath id="SVGID_00000130616948404915376460000004538757264860801680_">
		<use xlink:href="#SVGID_1_"  style="overflow:visible;"/>
	</clipPath>
	<g style="clip-path:url(#SVGID_00000130616948404915376460000004538757264860801680_);">
		<path class="st1" d="M67.8,2.2c-0.5,0-1.1,0-1.6-0.1c-0.3-0.1-0.7-0.4-0.7-0.7c0-0.2,0-0.4,0.1-0.6c0.1-0.2,0.2-0.3,0.3-0.5
			c0.5-0.2,1-0.3,1.5-0.3C68.8,0,70.3,0,71.7,0c0.3,0,0.6,0,0.9,0.1c0.2,0,0.4,0.1,0.5,0.2c0.2,0.1,0.3,0.2,0.4,0.4
			c0.1,0.2,0.2,0.4,0.2,0.6s0,0.4-0.1,0.6c-0.1,0.3-0.3,0.6-0.5,0.8c-0.9,1.5-1.8,3-2.7,4.6c-0.2,0.4-0.4,0.7-0.7,1.1
			c-0.2,0.2-0.4,0.4-0.6,0.4c-0.3,0.1-0.5,0-0.7-0.1C68.2,8.4,68,8.2,67.9,8c-0.1-0.3-0.1-0.5,0-0.8c0.2-0.4,0.4-0.8,0.6-1.1
			c0.2-0.5,0.5-1,0.7-1.5c-0.4,0-0.7,0.2-1.1,0.4c-0.9,0.5-1.8,1.1-2.7,1.5c-0.1,0.1-0.2,0.1-0.4,0.2c-0.1,0-0.3,0-0.4,0
			c-0.1,0-0.2-0.1-0.3-0.2c-0.1-0.1-0.2-0.2-0.2-0.3c-0.1-0.2-0.1-0.4,0-0.7c0-0.2,0.1-0.4,0.2-0.6c0.3-0.4,0.7-0.7,1.2-1
			c0.8-0.5,1.6-0.9,2.4-1.3C67.9,2.4,67.9,2.3,67.8,2.2z"/>
		<path class="st1" d="M10.4,9.9c-0.5,0-1,0-1.5,0c-0.6,0-1.1-0.2-1.2-0.9s0.5-1,1.1-1.1c1.4-0.1,2.8-0.1,4.1-0.2
			c0.6,0,1,0.2,1.1,0.8c0,0.1,0,0.3,0,0.4c0,0.1-0.1,0.2-0.2,0.3c-0.1,0.1-0.2,0.2-0.3,0.2c-0.1,0.1-0.2,0.1-0.4,0.1
			c-0.9,0.2-1.8,0.3-2.7,0.4L10.4,9.9z"/>
		<path class="st1" d="M40,3.6c1.6,0.6,3.1,1.3,4.6,2.1c0.2,0.1,0.4,0.8,0.2,1.1c-0.1,0.3-0.6,0.5-1,0.6c-0.3,0-0.5,0-0.7-0.2
			c-1.2-0.5-2.3-1.1-3.5-1.7c-0.4-0.2-0.6-0.6-0.8-0.8C39,3.8,39.5,3.4,40,3.6z"/>
		<path class="st1" d="M47.6,8.6c-0.1,0-0.2-0.1-0.3-0.2c-0.1-0.1-0.2-0.2-0.2-0.3C47,8.1,47,8,46.9,7.8c0-0.1,0-0.2,0-0.4
			c0-0.1,0-0.2,0.1-0.3C47.1,7,47.2,7,47.3,6.9c0.1-0.1,0.2-0.1,0.3-0.1c0.1,0,0.2,0,0.3,0c1.5,0.2,2.9,0.5,4.4,0.8
			c0.2,0.1,0.3,0.2,0.4,0.4s0.2,0.4,0.2,0.5c0,0.3-0.4,0.6-0.7,0.9c-0.2,0.1-0.5,0.1-0.8,0.2C50.2,9.2,48.9,8.9,47.6,8.6z"/>
		<path class="st1" d="M32.5,3.5c-0.6-0.1-1.1-0.3-1.1-1c0-0.1,0-0.3,0.1-0.4c0.1-0.1,0.2-0.3,0.3-0.3c0.1-0.1,0.2-0.2,0.4-0.2
			c0.1,0,0.3,0,0.4,0c1.2,0.1,2.3,0.2,3.5,0.4c0.1,0,0.3,0,0.4,0.1c0.1,0.1,0.2,0.2,0.3,0.3c0.1,0.1,0.2,0.2,0.2,0.4
			c0,0.1,0,0.3,0,0.4c-0.1,0.7-0.7,0.9-1.3,0.8C34.6,3.7,33.5,3.6,32.5,3.5z"/>
		<path class="st1" d="M0,5.8c0-0.2,0-0.4,0.1-0.6C0.2,5,0.3,4.9,0.5,4.7c0.2-0.1,0.3-0.1,0.5-0.1c0.2,0,0.3,0.1,0.5,0.1
			c0.9,0.7,1.9,1.5,2.7,2.3c0.1,0.2,0.2,0.3,0.2,0.5c0,0.2,0,0.4,0,0.6C4.3,8.4,3.9,8.6,3.7,8.7C2.4,8.7,0.1,6.9,0,5.8z"/>
		<path class="st1" d="M24.3,3.3c-0.1-0.1-0.1-0.2-0.1-0.4c0-0.1,0-0.3,0.1-0.4c0.1-0.1,0.1-0.2,0.2-0.3C24.6,2.1,24.7,2,24.8,2
			c1.2-0.3,2.4-0.6,3.6-0.7c0.1,0,0.3,0,0.4,0s0.2,0.1,0.3,0.2c0.1,0.1,0.2,0.2,0.2,0.3c0,0.1,0.1,0.3,0,0.4c0,0.2-0.1,0.4-0.3,0.6
			C29,3,28.9,3.1,28.7,3.2c-1.1,0.3-2.2,0.5-3.5,0.8C24.9,3.8,24.5,3.6,24.3,3.3z"/>
		<path class="st1" d="M55.9,8c0-0.1,0-0.3,0-0.4c0-0.1,0.1-0.2,0.2-0.4c0.1-0.1,0.2-0.2,0.3-0.3c0.1-0.1,0.2-0.1,0.4-0.1
			c1-0.3,2-0.5,3-0.7c0.1,0,0.3-0.1,0.4-0.1c0.1,0,0.3,0.1,0.4,0.1s0.2,0.2,0.3,0.3C60.9,6.7,61,6.8,61,6.9c0.2,0.7-0.3,1.1-0.9,1.3
			c-1,0.3-2,0.5-2.9,0.7C56.6,8.9,56.1,8.7,55.9,8z"/>
		<path class="st1" d="M20.6,6.1c-1.1,0.7-2.3,1.4-3.4,2c-0.2,0.1-0.7-0.2-0.8-0.5c-0.1-0.3-0.1-0.9,0.1-1c1.1-0.7,2.2-1.3,3.4-1.8
			c0.5-0.2,1,0.4,1,1C20.7,5.9,20.7,6.1,20.6,6.1z"/>
	</g>
</g>
</svg>
