<?xml version="1.0" encoding="utf-8"?>
<!-- Generator: Adobe Illustrator 27.0.1, SVG Export Plug-In . SVG Version: 6.00 Build 0)  -->
<svg version="1.1" id="Layer_1" xmlns="http://www.w3.org/2000/svg" xmlns:xlink="http://www.w3.org/1999/xlink" x="0px" y="0px"
	 viewBox="0 0 70 81" style="enable-background:new 0 0 70 81;" xml:space="preserve">
<style type="text/css">
	.st0{clip-path:url(#SVGID_00000060003448781701500910000014997580725305736587_);}
	.st1{fill:#98A2B3;}
</style>
<g>
	<defs>
		
			<rect id="SVGID_1_" x="20" y="1.3" transform="matrix(0.8113 -0.5846 0.5846 0.8113 -16.9803 27.9404)" width="29.6" height="77.9"/>
	</defs>
	<clipPath id="SVGID_00000120519332115122903450000016472635197769395381_">
		<use xlink:href="#SVGID_1_"  style="overflow:visible;"/>
	</clipPath>
	<g style="clip-path:url(#SVGID_00000120519332115122903450000016472635197769395381_);">
		<path class="st1" d="M55.7,66.6c-0.6,0.8-0.5,1.6,0,2c0.7,0.5,1.3,0.2,1.7-0.4c1.3-1.7,2.7-3.4,3.9-5.1c0.7-1,0.7-1.6-0.4-2.3
			c-1.4-1-2.9-1.9-4.3-2.9c-0.1-0.1-0.3-0.2-0.5-0.2c-0.5-0.2-1.1-0.2-1.3,0.4c-0.1,0.5-0.1,1,0.1,1.4c0.1,0.3,0.6,0.5,0.9,0.8
			c0.5,0.4,1,0.7,1.9,1.3c-0.9,0.1-1.5,0.2-2,0.2c-1.2,0.1-1.7,0.5-1.6,1.3c0.1,0.8,0.6,1.1,1.8,1.1c0.4,0,0.9,0,1.7,0
			C56.9,65.1,56.3,65.8,55.7,66.6z"/>
		<path class="st1" d="M24.2,37.5c0.1,0.1,0.3,0.2,0.5,0.3c0.2,0.1,0.3,0.1,0.5,0.1c0.2,0,0.3,0,0.4-0.1c0.1-0.1,0.2-0.2,0.3-0.3
			c0.4-0.6,0.1-1.3-0.5-1.9c-0.6-0.7-1.3-1.4-2-2.2c0.3-0.4,0.5-1,0.7-1.5c0-0.5-0.1-1.3-0.4-1.7c-0.4-0.3-1-0.3-1.5-0.3
			c-0.3,0.1-0.5,0.3-0.6,0.6c-0.5,0.9-1.1,1.8-1.6,2.7c-0.4,0.6-0.6,1.5,0.1,2.3c0.7,0.8,1.3,0.7,1.9,0.3c0.1,0,0.2,0,0.4,0
			C23.1,36.5,23.6,37.1,24.2,37.5z"/>
		<path class="st1" d="M22.1,5.4c0.1-0.2,0.2-0.4,0.3-0.6c0-0.2,0-0.5,0-0.8c-0.2-0.7-0.8-1-1.4-1.1c-0.4,0-0.7,0.1-1,0.2
			c-1.1,0.7-2.2,1.4-3.2,2.1c-0.5,0.4-0.8,1-0.2,1.9c0.5,0.8,1.2,1,2,0.6c0.6-0.4,1.2-0.8,1.6-1.2C20.8,6.3,21.5,5.9,22.1,5.4z"/>
		<path class="st1" d="M16.6,27l0.4,0.6c0.9,1.1,1.7,1.5,2.2,1.1c0.7-0.6,0.2-1.4-0.3-2.3c-0.7-1.2-1.3-2.4-1.9-3.7
			c-0.3-0.8-0.8-1.5-1.6-1.5c-0.2,0-0.3,0.1-0.5,0.1c-0.1,0.1-0.2,0.2-0.3,0.4c-0.1,0.2-0.1,0.3-0.1,0.5s0.1,0.4,0.2,0.6
			c0.5,1.4,1.1,2.8,1.7,4.2L16.6,27z"/>
		<path class="st1" d="M42.1,28.9c0.5,0.8,1,1.4,1.8,1.2c0.2-0.1,0.3-0.2,0.4-0.3c0.1-0.1,0.2-0.3,0.2-0.5c0-0.2,0-0.4,0-0.6
			c-0.1-0.2-0.2-0.4-0.3-0.6c-1-1.5-2.1-2.8-3.2-4.1c-0.1-0.2-0.3-0.3-0.5-0.4c-0.2-0.1-0.4-0.2-0.5-0.2c-0.2,0-0.3,0-0.5,0.1
			c-0.1,0.1-0.3,0.2-0.3,0.3c-0.4,0.6-0.1,1.2,0.5,1.9c0.6,0.8,1.3,1.6,1.8,2.2C41.7,28.2,41.9,28.5,42.1,28.9z"/>
		<path class="st1" d="M15,10c-1.1,1.2-1.7,3-1.7,4.9c0,0.2,0.1,0.5,0.2,0.7c0.1,0.2,0.3,0.4,0.5,0.6c0.5,0.2,1,0.1,1.3,0
			c0.2-0.1,0.3-0.5,0.4-0.7c0.4-1.1,0.8-2.2,1.1-3.3c0.1-0.5,0.1-0.9,0-1.4C16,9.6,15.4,9.5,15,10z"/>
		<path class="st1" d="M50.4,62.6c-0.1-0.3-0.3-0.5-0.5-0.7c-0.2-0.2-0.4-0.4-0.7-0.5c-1.4-0.3-2.8-0.6-4.2-0.8c-0.2,0-0.3,0-0.5,0
			c-0.1,0-0.3,0.1-0.3,0.2C44.1,61,44,61.1,44,61.3c0,0.2,0,0.3,0,0.5c0,0.2,0.1,0.3,0.1,0.5c0.1,0.2,0.2,0.3,0.3,0.4
			c0.1,0.1,0.3,0.2,0.4,0.3c0.1,0.1,0.3,0.1,0.4,0.2c1.3,0.3,2.7,0.6,4,0.8c0.3,0,0.7-0.1,1-0.2C50.3,63.4,50.5,62.9,50.4,62.6z"/>
		<path class="st1" d="M45,37.9c0.2-1.5,0.5-2.9,0.5-4.4c-0.1-0.3-0.2-0.5-0.4-0.7s-0.4-0.4-0.6-0.5c-0.2-0.1-0.5-0.1-0.7,0
			c-0.2,0.1-0.4,0.2-0.5,0.4c-0.3,1.3-0.5,2.7-0.5,4.2c0,1,1.2,1.7,1.9,1.3C44.8,38.1,44.9,38.1,45,37.9z"/>
		<path class="st1" d="M33.7,40.3c-1.3-0.8-2.6-1.4-3.9-1.8c-0.3-0.1-0.8,0.5-0.9,1c-0.1,0.6,0.4,1.2,1.1,1.5
			c0.9,0.4,1.8,0.9,2.7,1.2c0.4,0.1,0.8,0.1,1.1,0.1C34.5,41.8,34.5,40.8,33.7,40.3z"/>
		<path class="st1" d="M21.3,44.2c0-1.3-0.1-2.6-0.3-3.9c-0.2-1-1.4-1.5-2-0.8c-0.6,0.7-0.4,3.6,0.3,4.6c0.1,0.2,0.2,0.3,0.4,0.5
			c0.1,0.1,0.3,0.2,0.5,0.3c0.2,0.1,0.3,0.1,0.5,0.1c0.2,0,0.3-0.1,0.4-0.2C21.1,44.6,21.3,44.4,21.3,44.2z"/>
		<path class="st1" d="M25.7,24.8c-0.1,0.3-0.1,0.5,0,0.8c0.1,0.3,0.2,0.6,0.3,0.9c0.2,0.3,1.1,0.6,1.4,0.5c0.8-0.5,1.6-1.2,2.3-2
			c0.1-0.2,0.1-0.5,0-0.7c0-0.3-0.2-0.5-0.3-0.8C29.1,23.2,28.4,23,28,23c-0.4,0.1-0.8,0.3-1.1,0.6C26.4,23.9,26,24.3,25.7,24.8z"/>
		<path class="st1" d="M33.2,23c1.1,0.3,2.1,0.5,3.2,0.6c0.2,0,0.4-0.1,0.5-0.2s0.2-0.3,0.2-0.5c0-0.2,0-0.4-0.1-0.7
			c-0.1-0.2-0.2-0.4-0.4-0.6c-1-1.2-3.6-1.6-4.2-0.7c-0.2,0.3-0.1,0.9-0.2,1.4C32.7,22.7,32.9,23,33.2,23z"/>
		<path class="st1" d="M34.8,57.6c-0.9-0.8-1.8-1.5-2.8-2c-0.4-0.2-1,0.2-1.2,0.6c0,0.2,0,0.5,0.1,0.8c0.1,0.3,0.2,0.5,0.4,0.7
			c0.7,0.7,1.5,1.2,2.3,1.7c0.4,0.2,0.8,0.2,1.1,0.2C35.4,58.9,35.5,58.2,34.8,57.6z"/>
		<path class="st1" d="M26.6,53.5c0.2,0.3,0.6,0.5,0.9,0.6c0.3,0.1,0.6,0,0.8-0.2c0.1-0.1,0.2-0.2,0.2-0.3c0.1-0.1,0.1-0.3,0.1-0.4
			c0-0.2,0-0.3-0.1-0.5c-0.1-0.2-0.1-0.3-0.3-0.4c-0.5-0.8-1.2-1.6-1.8-2.3c-0.2-0.2-0.5-0.3-0.8-0.4c-0.3-0.1-0.5-0.1-0.7,0
			c-0.6,0.3-0.4,1.1,0,1.8c0.2,0.3,0.4,0.6,0.9,1.3C26.1,52.9,26.3,53.2,26.6,53.5z"/>
		<path class="st1" d="M42.2,39.6c-0.3-0.8-0.9-1.2-1.6-1c-0.7,0.1-1.4,0.3-2,0.5c-0.1,0-0.3,0.1-0.4,0.2c-0.1,0.1-0.2,0.2-0.2,0.4
			c0,0.2,0,0.3,0,0.5c0,0.2,0.1,0.4,0.2,0.5c0.2,0.3,0.4,0.5,0.7,0.6c0.3,0.2,0.5,0.3,0.8,0.3c0.8-0.1,1.6-0.2,2.4-0.5
			C42.2,40.7,42.4,40.1,42.2,39.6z"/>
		<path class="st1" d="M37.2,58.9c-0.6,0.5-0.4,1.7,0.4,2.1c0.9,0.4,1.7,0.7,2.6,0.7c0.2,0,0.3-0.1,0.4-0.2c0.1-0.1,0.2-0.2,0.2-0.4
			c0-0.2,0-0.4,0-0.6c-0.1-0.2-0.1-0.4-0.3-0.6C39.9,59.1,37.8,58.4,37.2,58.9z"/>
	</g>
</g>
</svg>
