<?xml version="1.0" encoding="utf-8"?>
<!-- Generator: Adobe Illustrator 27.0.1, SVG Export Plug-In . SVG Version: 6.00 Build 0)  -->
<svg version="1.1" id="Layer_1" xmlns="http://www.w3.org/2000/svg" xmlns:xlink="http://www.w3.org/1999/xlink" x="0px" y="0px"
	 viewBox="0 0 74 10" style="enable-background:new 0 0 74 10;" xml:space="preserve">
<style type="text/css">
	.st0{clip-path:url(#SVGID_00000071545426314766631160000017941389541247296702_);}
	.st1{fill:#98A2B3;}
</style>
<g>
	<defs>
		<rect id="SVGID_1_" x="0" width="73.8" height="10"/>
	</defs>
	<clipPath id="SVGID_00000091735527041397282330000000932639990896671150_">
		<use xlink:href="#SVGID_1_"  style="overflow:visible;"/>
	</clipPath>
	<g style="clip-path:url(#SVGID_00000091735527041397282330000000932639990896671150_);">
		<path class="st1" d="M5.9,7.8c0.5,0,1.1,0,1.6,0.1C7.8,8,8.2,8.4,8.2,8.6c0,0.2,0,0.4-0.1,0.6C8.1,9.4,8,9.5,7.8,9.6
			c-0.5,0.2-1,0.3-1.5,0.3C4.9,10,3.5,10,2,10c-0.3,0-0.6,0-0.9-0.1c-0.2,0-0.4-0.1-0.5-0.2C0.4,9.6,0.3,9.5,0.2,9.3
			C0.1,9.2,0,9,0,8.8c0-0.2,0-0.4,0.1-0.6c0.1-0.3,0.3-0.6,0.5-0.8c0.9-1.5,1.8-3,2.7-4.6c0.2-0.4,0.4-0.7,0.7-1.1
			c0.2-0.2,0.4-0.4,0.6-0.4c0.3-0.1,0.5,0,0.7,0.1C5.6,1.6,5.7,1.8,5.8,2c0.1,0.3,0.1,0.5,0,0.8C5.6,3.2,5.4,3.6,5.2,3.9
			C5,4.4,4.8,4.9,4.6,5.4c0.4,0,0.7-0.2,1.1-0.4C6.5,4.6,7.4,4,8.3,3.6c0.1-0.1,0.2-0.1,0.4-0.2s0.3,0,0.4,0c0.1,0,0.2,0.1,0.3,0.2
			c0.1,0.1,0.2,0.2,0.2,0.3c0.1,0.2,0.1,0.4,0,0.7c0,0.2-0.1,0.4-0.2,0.6c-0.3,0.4-0.7,0.7-1.2,1C7.5,6.6,6.6,7,5.8,7.5
			C5.9,7.6,5.9,7.7,5.9,7.8z"/>
		<path class="st1" d="M63.4,0.1c0.5,0,1,0,1.5,0c0.6,0,1.1,0.2,1.2,0.9c0,0.7-0.5,1-1.1,1.1c-1.4,0.1-2.8,0.1-4.1,0.2
			c-0.6,0-1-0.2-1.1-0.8c0-0.1,0-0.3,0-0.4c0-0.1,0.1-0.2,0.2-0.3c0.1-0.1,0.2-0.2,0.3-0.2c0.1-0.1,0.2-0.1,0.4-0.1
			c0.9-0.2,1.8-0.3,2.7-0.4L63.4,0.1z"/>
		<path class="st1" d="M33.7,6.4c-1.6-0.6-3.1-1.3-4.6-2.1c-0.2-0.1-0.4-0.8-0.2-1.1c0.1-0.3,0.6-0.5,1-0.6c0.3,0,0.5,0,0.7,0.2
			c1.2,0.5,2.3,1.1,3.5,1.7c0.4,0.2,0.6,0.6,0.8,0.8C34.7,6.2,34.2,6.6,33.7,6.4z"/>
		<path class="st1" d="M26.1,1.4c0.1,0,0.2,0.1,0.3,0.2c0.1,0.1,0.2,0.2,0.2,0.3c0.1,0.1,0.1,0.2,0.1,0.3c0,0.1,0,0.2,0,0.4
			c0,0.1,0,0.2-0.1,0.3C26.6,3,26.6,3,26.5,3.1c-0.1,0.1-0.2,0.1-0.3,0.1c-0.1,0-0.2,0-0.3,0c-1.5-0.2-2.9-0.5-4.4-0.8
			c-0.2-0.1-0.3-0.2-0.4-0.4c-0.1-0.2-0.2-0.4-0.2-0.5c0-0.3,0.4-0.6,0.7-0.9c0.2-0.1,0.5-0.1,0.8-0.2C23.6,0.8,24.9,1.1,26.1,1.4z"
			/>
		<path class="st1" d="M41.3,6.5c0.6,0.1,1.1,0.3,1.1,1c0,0.1,0,0.3-0.1,0.4c-0.1,0.1-0.2,0.3-0.3,0.3c-0.1,0.1-0.2,0.2-0.4,0.2
			c-0.1,0-0.3,0-0.4,0c-1.2-0.1-2.3-0.2-3.5-0.4c-0.1,0-0.3,0-0.4-0.1C37.2,8,37.1,7.9,37,7.8c-0.1-0.1-0.2-0.2-0.2-0.4
			c0-0.1,0-0.3,0-0.4c0.1-0.7,0.7-0.9,1.3-0.8C39.1,6.3,40.2,6.4,41.3,6.5z"/>
		<path class="st1" d="M73.7,4.2c0,0.2,0,0.4-0.1,0.6c-0.1,0.2-0.2,0.3-0.3,0.5c-0.2,0.1-0.3,0.1-0.5,0.1c-0.2,0-0.3-0.1-0.5-0.1
			c-1-0.7-1.9-1.5-2.7-2.3c-0.1-0.2-0.2-0.3-0.2-0.5c0-0.2,0-0.4,0-0.6c0.1-0.3,0.5-0.4,0.6-0.5C71.4,1.3,73.6,3.1,73.7,4.2z"/>
		<path class="st1" d="M49.5,6.7c0.1,0.1,0.1,0.2,0.1,0.4c0,0.1,0,0.3-0.1,0.4c-0.1,0.1-0.1,0.2-0.2,0.3C49.2,7.9,49,8,48.9,8
			c-1.2,0.3-2.4,0.6-3.6,0.7c-0.1,0-0.3,0-0.4,0c-0.1,0-0.2-0.1-0.3-0.2c-0.1-0.1-0.2-0.2-0.2-0.3c0-0.1-0.1-0.3,0-0.4
			c0-0.2,0.1-0.4,0.3-0.6c0.1-0.2,0.3-0.3,0.5-0.4c1.1-0.3,2.2-0.5,3.5-0.8C48.8,6.2,49.3,6.4,49.5,6.7z"/>
		<path class="st1" d="M17.8,2c0,0.1,0,0.3,0,0.4c0,0.1-0.1,0.2-0.2,0.4c-0.1,0.1-0.2,0.2-0.3,0.3c-0.1,0.1-0.2,0.1-0.4,0.1
			c-1,0.3-2,0.5-3,0.7c-0.1,0-0.3,0.1-0.4,0.1c-0.1,0-0.3-0.1-0.4-0.1c-0.1-0.1-0.2-0.2-0.3-0.3c-0.1-0.1-0.1-0.2-0.2-0.4
			C12.6,2.4,13,2,13.6,1.8c1-0.3,2-0.5,2.9-0.7C17.2,1.1,17.7,1.3,17.8,2z"/>
		<path class="st1" d="M53.2,3.8c1.1-0.7,2.3-1.3,3.4-1.9c0.2-0.1,0.7,0.2,0.8,0.5c0.1,0.3,0.1,0.9-0.1,1c-1.1,0.7-2.2,1.3-3.4,1.8
			c-0.5,0.2-1-0.4-1-1C53.1,4.1,53.1,3.9,53.2,3.8z"/>
	</g>
</g>
</svg>
