<?xml version="1.0" encoding="utf-8"?>
<!-- Generator: Adobe Illustrator 27.0.1, SVG Export Plug-In . SVG Version: 6.00 Build 0)  -->
<svg version="1.1" id="Layer_1" xmlns="http://www.w3.org/2000/svg" xmlns:xlink="http://www.w3.org/1999/xlink" x="0px" y="0px"
	 viewBox="0 0 12 12" style="enable-background:new 0 0 12 12;" xml:space="preserve">
<style type="text/css">
	.st0{fill:#98A2B3;}
</style>
<path class="st0" d="M2.7,6.5L8,11.8C8.1,11.9,8.3,12,8.4,12c0.2,0,0.3-0.1,0.5-0.2l0.4-0.4c0.3-0.3,0.3-0.7,0-0.9L4.8,6l4.5-4.5
	c0.1-0.1,0.2-0.3,0.2-0.5c0-0.2-0.1-0.3-0.2-0.5L9,0.2C8.8,0.1,8.7,0,8.5,0C8.3,0,8.1,0.1,8,0.2L2.7,5.5C2.5,5.6,2.5,5.8,2.5,6
	C2.5,6.2,2.5,6.3,2.7,6.5z"/>
</svg>
