<?xml version="1.0" encoding="utf-8"?>
<!-- Generator: Adobe Illustrator 27.0.1, SVG Export Plug-In . SVG Version: 6.00 Build 0)  -->
<svg version="1.1" id="Layer_1" xmlns="http://www.w3.org/2000/svg" xmlns:xlink="http://www.w3.org/1999/xlink" x="0px" y="0px"
	 viewBox="0 0 122 112" style="enable-background:new 0 0 122 112;" xml:space="preserve">
<style type="text/css">
	.st0{fill:#FFFFFF;}
</style>
<path class="st0" d="M58.5,126.9v-6.3h46.1L92.2,31.8L54.5,0.1L16.8,31.8L4.4,120.6h46.1v6.3H-13v8h135v-8H58.5z M58.5,13.9l26.2,22
	l2.2,15.7L58.5,27.8L58.5,13.9L58.5,13.9z M58.5,38.2l30,25.3l2.2,15.7L58.5,52.1V38.2z M58.5,62.6l33.9,28.6l2.2,15.7L58.5,76.4
	V62.6z M58.5,86.9l30.5,25.7H58.5V86.9z M24.3,36l26.2-22v13.8L22.1,51.6L24.3,36z M50.5,112.6H19.9l30.5-25.7V112.6z M50.5,76.4
	l-36.1,30.4l2.2-15.7l33.9-28.6V76.4z M50.5,52.1L18.3,79.2l2.2-15.7l30-25.3V52.1z"/>
</svg>
