<?xml version="1.0" encoding="utf-8"?>
<!-- Generator: Adobe Illustrator 27.0.1, SVG Export Plug-In . SVG Version: 6.00 Build 0)  -->
<svg version="1.1" id="Layer_1" xmlns="http://www.w3.org/2000/svg" xmlns:xlink="http://www.w3.org/1999/xlink" x="0px" y="0px"
	 viewBox="0 0 115 113" style="enable-background:new 0 0 115 113;" xml:space="preserve">
<style type="text/css">
	.st0{fill:#FFFFFF;}
</style>
<path class="st0" d="M115,72L95.5,52.5C95,52,94.4,51.4,93.8,51c0.1-0.8,0.1-1.5,0.1-2.3V21.1H66.3c-0.8,0-1.5,0-2.3,0.1
	c-0.5-0.6-1-1.1-1.5-1.7L43,0L23.5,19.5C23,20,22.4,20.6,22,21.2c-0.8-0.1-1.5-0.1-2.3-0.1H-7.9v27.6c0,0.8,0,1.5,0.1,2.3
	c-0.6,0.5-1.1,1-1.7,1.6L-29,72l19.5,19.5C-9,92-8.4,92.6-7.8,93c-0.1,0.8-0.1,1.5-0.1,2.3v27.6h27.6c0.8,0,1.5,0,2.3-0.1
	c0.5,0.6,1,1.1,1.5,1.7L43,144l19.5-19.5c0.5-0.5,1.1-1.1,1.5-1.7c0.8,0.1,1.5,0.1,2.3,0.1h27.6V95.3c0-0.8,0-1.5-0.1-2.3
	c0.6-0.5,1.1-1,1.7-1.6L115,72z M66.3,67.8H53.2l9.3-9.3c3.6-3.6,8.4-5.6,13.5-5.6c3,0,5.8,0.7,8.4,2C81.9,62.4,74.7,67.8,66.3,67.8
	z M84.4,89.2c-2.6,1.3-5.5,2-8.4,2c-5.1,0-9.9-2-13.5-5.6l-9.3-9.3h13.2C74.7,76.2,81.9,81.6,84.4,89.2z M60.2,113.4
	c-7.5-2.6-12.9-9.7-12.9-18.1V82.2l9.3,9.3C62.5,97.4,63.7,106.3,60.2,113.4z M25.8,113.4c-3.5-7.1-2.3-16,3.6-22l9.3-9.3v13.2
	C38.8,103.7,33.4,110.9,25.8,113.4z M19.7,76.2h13.2l-9.3,9.3c-3.6,3.6-8.4,5.6-13.5,5.6c-3,0-5.8-0.7-8.4-2
	C4.1,81.6,11.3,76.2,19.7,76.2z M1.6,54.8c2.6-1.3,5.5-2,8.4-2c5.1,0,9.9,2,13.5,5.6l9.3,9.3H19.7C11.3,67.8,4.1,62.4,1.6,54.8z
	 M23.9,39c0-3,0.7-5.8,2-8.4c7.5,2.6,13,9.7,13,18.1v13.2l-9.3-9.3C25.9,48.9,23.9,44.1,23.9,39z M60.2,30.6c3.5,7.1,2.3,16-3.6,22
	l-9.3,9.3V48.7C47.2,40.3,52.6,33.1,60.2,30.6z M85.5,29.5v16.6c-3-1.1-6.2-1.7-9.5-1.7c-2.1,0-4.2,0.2-6.2,0.7
	c1.2-5.2,0.8-10.6-1-15.6H85.5z M43,11.9l11.7,11.7C49.9,25.9,45.8,29.5,43,34c-2.8-4.5-6.9-8.1-11.7-10.4L43,11.9z M0.5,29.5h16.6
	c-1.1,3-1.7,6.2-1.7,9.5c0,2.1,0.2,4.1,0.7,6.1c-2-0.5-4-0.7-6.1-0.7c-3.3,0-6.5,0.6-9.5,1.7V29.5z M-17.1,72l11.7-11.7
	C-3.1,65.1,0.5,69.2,5,72c-4.5,2.8-8.1,6.9-10.4,11.7L-17.1,72z M0.5,114.5V97.9c3,1.1,6.2,1.7,9.5,1.7c2.1,0,4.2-0.2,6.2-0.7
	c-1.2,5.2-0.8,10.6,1,15.6H0.5z M43,132.1l-11.7-11.7c4.8-2.3,8.9-5.9,11.7-10.4c2.8,4.5,6.9,8.1,11.7,10.4L43,132.1z M85.5,114.5
	H68.9c1.8-5,2.1-10.4,1-15.6c2,0.5,4.1,0.7,6.2,0.7c3.3,0,6.5-0.6,9.5-1.7V114.5z M81,72c4.5-2.8,8.1-6.9,10.4-11.7L103.1,72
	L91.3,83.7C89.1,78.9,85.5,74.8,81,72z"/>
</svg>
