<?xml version="1.0" encoding="utf-8"?>
<!-- Generator: Adobe Illustrator 27.0.1, SVG Export Plug-In . SVG Version: 6.00 Build 0)  -->
<svg version="1.1" id="Layer_1" xmlns="http://www.w3.org/2000/svg" xmlns:xlink="http://www.w3.org/1999/xlink" x="0px" y="0px"
	 viewBox="0 0 100 90" style="enable-background:new 0 0 100 90;" xml:space="preserve">
<style type="text/css">
	.st0{fill:#FFFFFF;}
</style>
<path class="st0" d="M70.7,9.1c-2-0.6-7.9-2.4-25.2-7.8l-1-0.3L18.3,9.1c-2-0.6-7.9-2.4-25.2-7.8L-11.3,0v113l29.6-7.7l26.2,6.8
	l26.2-6.8l29.6,7.7V0L70.7,9.1z M93.5,104.1l-19.4-5.1v-5.1h-6.8v5.1l-19.4,5.1V75.1h-6.8v29.1l-19.4-5.1V74.7h-6.8v24.4l-19.4,5.1
	V9.3c5.6,1.7,15,4.6,19.4,6v1.7h6.8v-1.7l19.4-6v48.1h6.8V9.3c5.6,1.7,15,4.6,19.4,6v21.9h6.8V15.2l19.4-6V104.1z"/>
<path class="st0" d="M18.4,19.2c-5.9,0-10.7,4.8-10.7,10.7c0,4.7,3.1,8.7,7.3,10.1v10.8h6.8V40c4.2-1.4,7.3-5.4,7.3-10.1
	C29.1,24,24.3,19.2,18.4,19.2z M18.4,33.7c-2.1,0-3.9-1.7-3.9-3.8c0-2.1,1.7-3.8,3.9-3.8c2.1,0,3.9,1.7,3.9,3.8
	C22.3,32,20.6,33.7,18.4,33.7z"/>
<path class="st0" d="M70.7,39.8c-6.9,0-12.5,5.6-12.5,12.5c0,5.7,3.9,10.5,9.1,12v14.1h6.8V64.3c5.3-1.5,9.1-6.3,9.1-12
	C83.3,45.4,77.6,39.8,70.7,39.8z M70.7,57.9c-3.1,0-5.7-2.5-5.7-5.6c0-3.1,2.6-5.6,5.7-5.6c3.1,0,5.7,2.5,5.7,5.6
	C76.4,55.4,73.9,57.9,70.7,57.9z"/>
<path class="st0" d="M21.7,55.7h-6.8v3.4h6.8V55.7z"/>
<path class="st0" d="M21.7,64.3h-6.8v6.8h6.8V64.3z"/>
<path class="st0" d="M50.6,64.3h-7.2v6.8h7.2V64.3z"/>
<path class="st0" d="M41,64.3h-7.2v6.8H41V64.3z"/>
<path class="st0" d="M31.3,64.3h-7.2v6.8h7.2V64.3z"/>
<path class="st0" d="M59.9,64.3H53v6.8h6.8V64.3z"/>
<path class="st0" d="M59.9,73.4H53v6.8h6.8V73.4z"/>
<path class="st0" d="M59.9,82.4H53v6.8h6.8V82.4z"/>
<path class="st0" d="M65.8,82.4h-4.4v6.8h4.4V82.4z"/>
<path class="st0" d="M70.7,82.4h-3.4v6.8h3.4V82.4z"/>
</svg>
