<?xml version="1.0" encoding="utf-8"?>
<!-- Generator: Adobe Illustrator 27.0.1, SVG Export Plug-In . SVG Version: 6.00 Build 0)  -->
<svg version="1.1" id="Layer_1" xmlns="http://www.w3.org/2000/svg" xmlns:xlink="http://www.w3.org/1999/xlink" x="0px" y="0px"
	 viewBox="0 0 75 10" style="enable-background:new 0 0 75 10;" xml:space="preserve">
<style type="text/css">
	.st0{clip-path:url(#SVGID_00000003799763019965437040000009536320486730247868_);}
	.st1{fill:#98A2B3;}
</style>
<g>
	<defs>
		<rect id="SVGID_1_" x="0" y="0" width="74.4" height="10"/>
	</defs>
	<clipPath id="SVGID_00000178169783336157778710000014243211031083629228_">
		<use xlink:href="#SVGID_1_"  style="overflow:visible;"/>
	</clipPath>
	<g style="clip-path:url(#SVGID_00000178169783336157778710000014243211031083629228_);">
		<path class="st1" d="M6,2.2c0.5,0,1.1,0,1.6-0.1C7.9,2,8.3,1.6,8.3,1.4c0-0.2,0-0.4-0.1-0.6C8.2,0.6,8,0.5,7.9,0.4
			c-0.5-0.2-1-0.3-1.5-0.3C5,0,3.5,0,2.1,0C1.7,0,1.4,0,1.1,0.1c-0.2,0-0.4,0.1-0.6,0.2C0.4,0.4,0.3,0.5,0.2,0.7C0.1,0.8,0,1,0,1.2
			c0,0.2,0,0.4,0.1,0.6c0.1,0.3,0.3,0.6,0.5,0.8c0.9,1.5,1.8,3,2.7,4.6C3.5,7.6,3.7,7.9,4,8.3c0.2,0.2,0.4,0.4,0.6,0.4
			c0.3,0.1,0.5,0,0.8-0.1C5.6,8.4,5.8,8.2,5.9,8C6,7.7,6,7.5,5.9,7.2C5.7,6.8,5.5,6.4,5.3,6.1c-0.2-0.5-0.5-1-0.7-1.5
			C5,4.6,5.3,4.7,5.7,5C6.6,5.4,7.5,6,8.4,6.4c0.1,0.1,0.2,0.1,0.4,0.2c0.1,0,0.3,0,0.4,0c0.1,0,0.2-0.1,0.3-0.2
			c0.1-0.1,0.2-0.2,0.2-0.3c0.1-0.2,0.1-0.4,0-0.7c0-0.2-0.1-0.4-0.2-0.6c-0.3-0.4-0.7-0.7-1.2-1C7.5,3.4,6.7,3,5.9,2.5
			C5.9,2.4,5.9,2.3,6,2.2z"/>
		<path class="st1" d="M64,9.9c0.5,0,1,0,1.5,0c0.6,0,1.1-0.2,1.2-0.9c0-0.7-0.5-1-1.1-1.1c-1.4-0.1-2.8-0.1-4.2-0.2
			c-0.6,0-1.1,0.2-1.1,0.8c0,0.1,0,0.3,0,0.4s0.1,0.2,0.2,0.3c0.1,0.1,0.2,0.2,0.3,0.2c0.1,0.1,0.2,0.1,0.4,0.1
			C62.1,9.8,63,9.9,64,10L64,9.9z"/>
		<path class="st1" d="M34,3.6c-1.6,0.6-3.1,1.3-4.6,2.1c-0.2,0.1-0.4,0.8-0.2,1.1c0.1,0.3,0.6,0.5,1,0.6c0.3,0,0.5,0,0.7-0.2
			c1.2-0.5,2.4-1.1,3.5-1.7c0.4-0.2,0.6-0.6,0.8-0.8C35,3.8,34.5,3.4,34,3.6z"/>
		<path class="st1" d="M26.4,8.6c0.1,0,0.2-0.1,0.3-0.2c0.1-0.1,0.2-0.2,0.2-0.3C27,8.1,27,8,27.1,7.8c0-0.1,0-0.2,0-0.4
			c0-0.1,0-0.2-0.1-0.3C26.9,7,26.8,7,26.7,6.9c-0.1-0.1-0.2-0.1-0.3-0.1c-0.1,0-0.2,0-0.4,0c-1.5,0.2-3,0.5-4.4,0.8
			c-0.2,0.1-0.3,0.2-0.4,0.4C21.1,8.1,21,8.3,21,8.5c0,0.3,0.4,0.6,0.7,0.9c0.2,0.1,0.5,0.1,0.8,0.2C23.8,9.2,25.1,8.9,26.4,8.6z"/>
		<path class="st1" d="M41.7,3.5c0.6-0.1,1.1-0.3,1.1-1c0-0.1,0-0.3-0.1-0.4c-0.1-0.1-0.2-0.3-0.3-0.3c-0.1-0.1-0.2-0.2-0.4-0.2
			c-0.1,0-0.3,0-0.4,0c-1.2,0.1-2.4,0.2-3.5,0.4c-0.1,0-0.3,0-0.4,0.1c-0.1,0.1-0.2,0.2-0.3,0.3c-0.1,0.1-0.2,0.2-0.2,0.4
			c0,0.1,0,0.3,0,0.4c0.1,0.7,0.7,0.9,1.3,0.8C39.5,3.7,40.6,3.6,41.7,3.5z"/>
		<path class="st1" d="M74.4,5.8c0-0.2,0-0.4-0.1-0.6C74.2,5,74.1,4.9,74,4.7c-0.2-0.1-0.3-0.1-0.5-0.1c-0.2,0-0.3,0.1-0.5,0.1
			c-1,0.7-1.9,1.5-2.7,2.3c-0.1,0.2-0.2,0.3-0.2,0.5c0,0.2,0,0.4,0,0.6c0.1,0.3,0.5,0.4,0.6,0.5C72,8.7,74.3,6.9,74.4,5.8z"/>
		<path class="st1" d="M49.9,3.3C50,3.1,50,3,50,2.9c0-0.1,0-0.3-0.1-0.4c-0.1-0.1-0.1-0.2-0.2-0.3C49.6,2.1,49.5,2,49.4,2
			c-1.2-0.3-2.4-0.6-3.6-0.7c-0.1,0-0.3,0-0.4,0S45.1,1.4,45,1.5c-0.1,0.1-0.2,0.2-0.2,0.3c0,0.1-0.1,0.3,0,0.4
			c0,0.2,0.1,0.4,0.3,0.6c0.1,0.2,0.3,0.3,0.5,0.4c1.1,0.3,2.2,0.5,3.6,0.8C49.3,3.8,49.8,3.6,49.9,3.3z"/>
		<path class="st1" d="M18,8c0-0.1,0-0.3,0-0.4c0-0.1-0.1-0.2-0.2-0.4c-0.1-0.1-0.2-0.2-0.3-0.3c-0.1-0.1-0.2-0.1-0.4-0.1
			c-1-0.3-2-0.5-3-0.7c-0.1,0-0.3-0.1-0.4-0.1c-0.1,0-0.3,0.1-0.4,0.1c-0.1,0.1-0.2,0.2-0.3,0.3c-0.1,0.1-0.1,0.2-0.2,0.4
			c-0.2,0.7,0.3,1.1,0.9,1.3c1,0.3,2,0.5,2.9,0.7C17.3,8.9,17.9,8.7,18,8z"/>
		<path class="st1" d="M53.7,6.1c1.1,0.7,2.3,1.4,3.5,2c0.2,0.1,0.7-0.2,0.8-0.5c0.1-0.3,0.1-0.9-0.1-1c-1.1-0.7-2.2-1.3-3.4-1.8
			c-0.5-0.2-1,0.4-1,1C53.6,5.9,53.6,6.1,53.7,6.1z"/>
	</g>
</g>
</svg>
