<svg xmlns="http://www.w3.org/2000/svg" width="200" height="171" viewBox="0 0 200 171" version="1.1"><path d="M 129.607 31.582 C 128.642 34.095, 128.856 34.614, 131.323 35.737 C 133.249 36.615, 133.860 36.454, 134.892 34.801 C 136.280 32.578, 136.335 32.705, 133.316 31.135 C 130.505 29.674, 130.331 29.695, 129.607 31.582 M 139.903 37.181 C 138.947 38.968, 139.061 39.572, 140.565 40.671 C 141.564 41.402, 142.730 42, 143.156 42 C 143.944 42, 146.434 37.964, 145.831 37.664 C 145.649 37.574, 144.501 36.942, 143.280 36.260 C 141.340 35.177, 140.913 35.293, 139.903 37.181 M 150.259 44.956 C 149.221 46.619, 149.363 47.141, 151.201 48.428 C 154.884 51.008, 157.829 47.109, 154.250 44.392 C 151.933 42.633, 151.688 42.668, 150.259 44.956 M 160.545 54.859 C 159.897 56.899, 160.766 60, 161.985 60 C 163.926 60, 165.127 57.106, 164.034 55.064 C 162.663 52.501, 161.318 52.422, 160.545 54.859 M 167.250 65.141 C 165.857 66.544, 165.562 70.611, 166.798 71.375 C 167.237 71.646, 168.213 71.487, 168.967 71.020 C 169.998 70.383, 170.110 69.391, 169.419 67.027 C 168.682 64.504, 168.253 64.131, 167.250 65.141 M 167.667 79.667 C 167.300 80.033, 167 81.369, 167 82.635 C 167 84.271, 167.434 84.771, 168.500 84.362 C 169.325 84.045, 170 82.709, 170 81.393 C 170 79.059, 169.008 78.325, 167.667 79.667 M 114.640 83.497 C 113.923 85.365, 118.650 86.750, 120.257 85.143 C 121.599 83.801, 121.278 83.468, 117.854 82.648 C 116 82.204, 115.038 82.458, 114.640 83.497 M 102.541 87.245 C 101.419 88.847, 101.306 89.602, 102.147 89.882 C 103.300 90.267, 106 87.412, 106 85.809 C 106 84.237, 104.093 85.029, 102.541 87.245 M 128 88.345 C 128 89.085, 128.844 90.454, 129.876 91.388 C 131.463 92.824, 131.839 92.862, 132.309 91.637 C 132.615 90.840, 132.073 89.471, 131.104 88.594 C 128.952 86.647, 128 86.570, 128 88.345 M 164.345 93.543 C 164.019 94.392, 164.004 95.337, 164.310 95.643 C 165.186 96.519, 167 95.034, 167 93.441 C 167 91.522, 165.092 91.596, 164.345 93.543 M 134.775 98.558 C 133.889 99.444, 135.131 103.037, 136.114 102.430 C 137.237 101.736, 137.282 98, 136.167 98 C 135.708 98, 135.082 98.251, 134.775 98.558 M 160.571 103.571 C 159.655 104.488, 159.162 105.495, 159.476 105.810 C 159.790 106.124, 160.798 105.631, 161.714 104.714 C 162.631 103.798, 163.124 102.790, 162.810 102.476 C 162.495 102.162, 161.488 102.655, 160.571 103.571 M 155.538 113.302 C 154.543 114.820, 153.943 116.276, 154.204 116.537 C 155.036 117.370, 158.223 113.169, 157.776 111.828 C 157.506 111.018, 156.676 111.565, 155.538 113.302 M 131 114.059 C 131 115.191, 131.450 115.840, 132 115.500 C 132.550 115.160, 133 114.234, 133 113.441 C 133 112.648, 132.550 112, 132 112 C 131.450 112, 131 112.927, 131 114.059 M 103.465 118.056 C 102.688 119.314, 104.859 121.171, 106.500 120.650 C 107.050 120.476, 107.500 119.702, 107.500 118.930 C 107.500 117.161, 104.430 116.496, 103.465 118.056 M 147.190 119.580 C 144.971 121.133, 144.185 124, 145.977 124 C 147.107 124, 150.491 119.157, 149.825 118.492 C 149.580 118.247, 148.394 118.736, 147.190 119.580 M 117.495 124.008 C 116.838 125.072, 120.964 127.081, 122.250 126.324 C 122.662 126.081, 123 125.234, 123 124.441 C 123 122.790, 118.468 122.434, 117.495 124.008 M 132.345 125.543 C 132.019 126.392, 132.032 127.365, 132.372 127.706 C 133.226 128.559, 138 126.282, 138 125.021 C 138 123.384, 132.997 123.845, 132.345 125.543 M 94.250 150.288 C 91.781 151.405, 91.614 151.842, 92.888 153.853 C 93.557 154.909, 94.214 154.956, 95.873 154.068 C 98.144 152.853, 98.402 152.156, 97.235 150.386 C 96.719 149.603, 95.830 149.574, 94.250 150.288 M 82.500 156.218 C 81.400 156.810, 80.377 157.389, 80.226 157.504 C 79.732 157.883, 81.199 161.001, 81.857 160.968 C 82.211 160.951, 83.328 160.309, 84.341 159.542 C 86.942 157.570, 85.344 154.686, 82.500 156.218" stroke="none" fill="#e9e8f1" fill-rule="evenodd"/><path d="M 164.158 16.897 C 154.126 32.597, 153.097 34.487, 154.939 33.833 C 156.005 33.455, 176 3.049, 176 1.807 C 176 -0.826, 173.219 2.717, 164.158 16.897 M 180.833 17.726 C 177.875 21.177, 167 40.118, 167 41.818 C 167 42.767, 169.258 46.640, 172.018 50.426 C 178.223 58.937, 181.307 68.327, 181.395 78.977 C 181.510 92.855, 180.821 94.751, 171.544 106.064 L 163.191 116.248 161.463 125.874 C 160.512 131.168, 159.521 136.063, 159.260 136.750 C 158.999 137.438, 159.299 138, 159.927 138 C 161.621 138, 177.490 113.273, 184.665 99.453 C 197.151 75.403, 201.112 57.922, 197.497 42.819 C 195.386 33.998, 190.116 23.474, 185.635 19.131 C 182.534 16.126, 182.271 16.049, 180.833 17.726 M 22.209 28.343 C 16.290 31.628, 5.823 47.952, 2.596 58.932 C -2.799 77.288, 6.501 101.837, 23.211 113.345 C 29.839 117.910, 40.607 122, 45.998 122 C 51.308 122, 54.632 123.697, 56.056 127.135 C 57.101 129.658, 56.804 131.207, 53.640 139.755 C 49.184 151.794, 48.116 156.668, 49.119 160.381 C 50.666 166.107, 57.425 171, 63.788 171 C 67.592 171, 84.549 165.234, 92.500 161.237 C 95.250 159.854, 100.163 156.917, 103.418 154.710 L 109.336 150.697 102.488 148.390 C 96.670 146.431, 85 139.710, 85 138.319 C 85 137.813, 85.929 138.358, 91.765 142.289 C 98.778 147.013, 106.493 149.297, 115.623 149.351 C 122.790 149.394, 124.508 149.025, 130.228 146.208 C 138.672 142.051, 145.239 135.463, 154.005 122.354 C 173.043 93.883, 177.054 77.079, 168.889 60 C 162.924 47.523, 152.786 38.072, 137.725 30.946 C 127.224 25.979, 127.154 26.028, 116.821 45.583 L 112.022 54.666 121.383 59.313 C 144.085 70.583, 156.311 86.046, 156.451 103.667 C 156.492 108.870, 156.118 110.241, 154.055 112.439 C 150.729 115.983, 142.443 119.892, 136.149 120.887 C 131.397 121.639, 131.079 121.571, 132.420 120.089 C 133.226 119.198, 135.315 115.414, 137.062 111.681 C 139.732 105.975, 140.167 104.032, 139.791 99.498 C 138.601 85.146, 121.964 76.494, 106.778 82.330 C 98.806 85.393, 88.053 99.862, 81.628 116.171 C 78.358 124.471, 78.299 128.688, 81.388 133.241 L 83.777 136.760 78.977 135.494 C 72.700 133.838, 72.057 133.380, 70.381 129.370 C 68.746 125.457, 68.979 124.082, 73.594 110.398 C 77.393 99.130, 77.690 96.235, 75.482 91.965 C 72.278 85.769, 66.204 86.900, 51.648 96.403 C 39.440 104.372, 37.984 104.777, 32.216 101.807 C 18.165 94.572, 22.587 74.282, 42.916 52.712 C 48.373 46.922, 49.121 45.706, 47.916 44.582 C 44.643 41.526, 25.840 27.003, 25.199 27.035 C 24.814 27.055, 23.469 27.643, 22.209 28.343 M 129.607 31.582 C 128.642 34.095, 128.856 34.614, 131.323 35.737 C 133.249 36.615, 133.860 36.454, 134.892 34.801 C 136.280 32.578, 136.335 32.705, 133.316 31.135 C 130.505 29.674, 130.331 29.695, 129.607 31.582 M 139.903 37.181 C 138.947 38.968, 139.061 39.572, 140.565 40.671 C 141.564 41.402, 142.730 42, 143.156 42 C 143.944 42, 146.434 37.964, 145.831 37.664 C 145.649 37.574, 144.501 36.942, 143.280 36.260 C 141.340 35.177, 140.913 35.293, 139.903 37.181 M 87.714 42.375 C 84.156 47.735, 75 64.176, 75 65.207 C 75 65.506, 76.237 66.014, 77.750 66.336 C 82.091 67.261, 86.897 70.711, 89.138 74.509 C 90.271 76.429, 91.513 78, 91.898 78 C 92.911 78, 102.622 63.052, 104.967 57.884 C 107.607 52.065, 107.558 46.979, 104.829 43.509 C 102.646 40.735, 95.890 37.063, 92.892 37.022 C 92.007 37.010, 89.677 39.419, 87.714 42.375 M 150.259 44.956 C 149.221 46.619, 149.363 47.141, 151.201 48.428 C 154.884 51.008, 157.829 47.109, 154.250 44.392 C 151.933 42.633, 151.688 42.668, 150.259 44.956 M 160.545 54.859 C 159.897 56.899, 160.766 60, 161.985 60 C 163.926 60, 165.127 57.106, 164.034 55.064 C 162.663 52.501, 161.318 52.422, 160.545 54.859 M 167.250 65.141 C 165.857 66.544, 165.562 70.611, 166.798 71.375 C 167.237 71.646, 168.213 71.487, 168.967 71.020 C 169.998 70.383, 170.110 69.391, 169.419 67.027 C 168.682 64.504, 168.253 64.131, 167.250 65.141 M 167.667 79.667 C 167.300 80.033, 167 81.369, 167 82.635 C 167 84.271, 167.434 84.771, 168.500 84.362 C 169.325 84.045, 170 82.709, 170 81.393 C 170 79.059, 169.008 78.325, 167.667 79.667 M 114.640 83.497 C 113.923 85.365, 118.650 86.750, 120.257 85.143 C 121.599 83.801, 121.278 83.468, 117.854 82.648 C 116 82.204, 115.038 82.458, 114.640 83.497 M 102.541 87.245 C 101.419 88.847, 101.306 89.602, 102.147 89.882 C 103.300 90.267, 106 87.412, 106 85.809 C 106 84.237, 104.093 85.029, 102.541 87.245 M 128 88.345 C 128 89.085, 128.844 90.454, 129.876 91.388 C 131.463 92.824, 131.839 92.862, 132.309 91.637 C 132.615 90.840, 132.073 89.471, 131.104 88.594 C 128.952 86.647, 128 86.570, 128 88.345 M 164.345 93.543 C 164.019 94.392, 164.004 95.337, 164.310 95.643 C 165.186 96.519, 167 95.034, 167 93.441 C 167 91.522, 165.092 91.596, 164.345 93.543 M 134.775 98.558 C 133.889 99.444, 135.131 103.037, 136.114 102.430 C 137.237 101.736, 137.282 98, 136.167 98 C 135.708 98, 135.082 98.251, 134.775 98.558 M 160.571 103.571 C 159.655 104.488, 159.162 105.495, 159.476 105.810 C 159.790 106.124, 160.798 105.631, 161.714 104.714 C 162.631 103.798, 163.124 102.790, 162.810 102.476 C 162.495 102.162, 161.488 102.655, 160.571 103.571 M 103.260 112.380 C 108.195 115.889, 115.329 119.231, 120.488 120.451 C 123.314 121.119, 123.191 120.884, 118.225 116.122 C 112.844 110.963, 108.405 109.016, 102.003 109.006 L 98.506 109 103.260 112.380 M 155.538 113.302 C 154.543 114.820, 153.943 116.276, 154.204 116.537 C 155.036 117.370, 158.223 113.169, 157.776 111.828 C 157.506 111.018, 156.676 111.565, 155.538 113.302 M 131 114.059 C 131 115.191, 131.450 115.840, 132 115.500 C 132.550 115.160, 133 114.234, 133 113.441 C 133 112.648, 132.550 112, 132 112 C 131.450 112, 131 112.927, 131 114.059 M 103.465 118.056 C 102.688 119.314, 104.859 121.171, 106.500 120.650 C 107.050 120.476, 107.500 119.702, 107.500 118.930 C 107.500 117.161, 104.430 116.496, 103.465 118.056 M 147.190 119.580 C 144.971 121.133, 144.185 124, 145.977 124 C 147.107 124, 150.491 119.157, 149.825 118.492 C 149.580 118.247, 148.394 118.736, 147.190 119.580 M 24.291 121.241 C 20.700 125.150, 8.239 146.749, 9.183 147.427 C 9.357 147.552, 11.072 148.282, 12.993 149.049 C 17.094 150.686, 24 156.652, 24 158.557 C 24 162.133, 26.355 160.276, 31.360 152.753 C 37.215 143.954, 41 136.127, 41 132.818 C 41 129.077, 37.950 124.340, 34.214 122.279 C 28.089 118.899, 26.586 118.742, 24.291 121.241 M 117.495 124.008 C 116.838 125.072, 120.964 127.081, 122.250 126.324 C 122.662 126.081, 123 125.234, 123 124.441 C 123 122.790, 118.468 122.434, 117.495 124.008 M 132.345 125.543 C 132.019 126.392, 132.032 127.365, 132.372 127.706 C 133.226 128.559, 138 126.282, 138 125.021 C 138 123.384, 132.997 123.845, 132.345 125.543 M 146.464 144.869 C 146.209 145.125, 146 146.060, 146 146.949 C 146 148.595, 147.172 148.788, 160.343 149.315 C 163.006 149.422, 165.409 149.148, 165.682 148.706 C 165.955 148.264, 166.808 148.426, 167.579 149.066 C 168.696 149.992, 169.172 149.749, 169.927 147.864 C 170.621 146.129, 170.890 145.966, 170.937 147.250 C 170.971 148.213, 171.417 149, 171.927 149 C 172.436 149, 173.059 148.213, 173.311 147.250 C 173.746 145.583, 173.774 145.583, 173.884 147.250 C 173.990 148.844, 175.935 149.587, 178.500 149.013 C 179.050 148.890, 180.512 148.781, 181.750 148.770 C 183.285 148.756, 184 148.148, 184 146.855 C 184 145.384, 183.446 145.061, 181.516 145.411 C 180.150 145.659, 178.839 145.548, 178.601 145.164 C 178.364 144.780, 175.769 144.534, 172.835 144.616 C 165.182 144.830, 165.192 144.828, 164.689 146.750 C 164.254 148.417, 164.226 148.417, 164.116 146.750 C 164.052 145.787, 163.438 144.954, 162.750 144.898 C 157.994 144.508, 146.844 144.489, 146.464 144.869 M 94.250 150.288 C 91.781 151.405, 91.614 151.842, 92.888 153.853 C 93.557 154.909, 94.214 154.956, 95.873 154.068 C 98.144 152.853, 98.402 152.156, 97.235 150.386 C 96.719 149.603, 95.830 149.574, 94.250 150.288 M 155.327 152.592 C 154.386 155.043, 155.911 155.683, 162.961 155.794 C 167.830 155.870, 170.005 155.534, 170.015 154.702 C 170.026 153.859, 170.250 153.828, 170.765 154.599 C 171.940 156.355, 179 155.963, 179 154.142 C 179 152.965, 179.335 153.060, 180.468 154.559 C 181.276 155.626, 181.951 155.974, 181.968 155.332 C 181.986 154.689, 182.240 153.537, 182.534 152.772 C 182.932 151.734, 182.062 151.361, 179.110 151.307 C 175.894 151.247, 175.246 151.540, 175.652 152.867 C 176.103 154.344, 176.052 154.348, 175.113 152.907 C 173.738 150.794, 156.124 150.513, 155.327 152.592 M 82.500 156.218 C 81.400 156.810, 80.377 157.389, 80.226 157.504 C 79.732 157.883, 81.199 161.001, 81.857 160.968 C 82.211 160.951, 83.328 160.309, 84.341 159.542 C 86.942 157.570, 85.344 154.686, 82.500 156.218 M 108 160.596 C 108 162.620, 111.141 168, 112.323 168 C 112.813 168, 112.998 167.438, 112.734 166.750 C 112.389 165.851, 113.483 165.553, 116.627 165.688 C 120.980 165.876, 121 165.860, 121 162.438 C 121 159.667, 120.612 159, 119 159 C 117.792 159, 116.969 159.693, 116.921 160.750 C 116.874 161.795, 116.639 161.997, 116.338 161.250 C 115.583 159.380, 114 159.743, 114 161.786 C 114 162.905, 113.253 163.571, 112 163.571 C 110.583 163.571, 110 162.905, 110 161.286 C 110 160.029, 109.550 159, 109 159 C 108.450 159, 108 159.718, 108 160.596 M 133.985 160.750 C 133.972 162.246, 133.828 162.282, 133 161 C 132.242 159.827, 132.027 160.086, 132.015 162.191 C 131.997 165.416, 130.662 166.502, 129.072 164.586 C 128.189 163.523, 128.221 163.086, 129.208 162.734 C 129.919 162.481, 130.227 161.977, 129.893 161.613 C 128.660 160.271, 125.837 162.269, 126.326 164.138 C 126.594 165.162, 126.405 166, 125.906 166 C 125.408 166, 125 165.325, 125 164.500 C 125 163.675, 124.550 163, 124 163 C 122.338 163, 122.879 167.017, 124.632 167.689 C 125.530 168.034, 127.073 167.811, 128.061 167.194 C 129.357 166.384, 129.959 166.378, 130.223 167.170 C 130.465 167.896, 131.082 167.791, 132.045 166.861 C 132.845 166.088, 135.290 165.465, 137.477 165.477 C 140.467 165.494, 141.539 165.069, 141.798 163.761 C 142.085 162.312, 141.629 162.124, 139.071 162.636 C 136.414 163.167, 136 162.964, 136 161.125 C 136 159.956, 135.550 159, 135 159 C 134.450 159, 133.993 159.787, 133.985 160.750 M 150 161.700 C 150 163.739, 149.718 164.118, 148.847 163.247 C 147.100 161.500, 144 163.603, 144 166.535 C 144 167.891, 144.450 169, 145 169 C 145.550 169, 146 168.325, 146 167.500 C 146 166.500, 147 166, 149 166 C 150.650 166, 152 166.450, 152 167 C 152 168.594, 153.908 168.163, 156.165 166.061 C 157.688 164.642, 158.075 163.433, 157.605 161.561 C 156.801 158.359, 155 158.202, 155 161.333 C 155 162.741, 154.405 163.667, 153.500 163.667 C 152.595 163.667, 152 162.741, 152 161.333 C 152 160.050, 151.550 159, 151 159 C 150.450 159, 150 160.215, 150 161.700 M 169.064 159.939 C 167.975 160.629, 167.902 161.177, 168.762 162.213 C 169.685 163.325, 169.162 163.608, 165.948 163.737 C 163.777 163.823, 162 163.468, 162 162.947 C 162 162.426, 162.990 162, 164.200 162 C 165.778 162, 166.094 161.694, 165.318 160.918 C 163.880 159.480, 159.846 161.927, 160.236 164 C 160.431 165.036, 162.028 165.596, 165.399 165.810 C 170.911 166.161, 173.023 164.937, 171.035 162.542 C 169.971 161.260, 170.029 161, 171.378 161 C 172.270 161, 173 160.550, 173 160 C 173 158.760, 170.977 158.729, 169.064 159.939 M 179.904 160 C 179.826 160.825, 179.830 162.035, 179.911 162.689 C 180.005 163.436, 179.118 163.708, 177.530 163.420 C 175.785 163.103, 175 163.406, 175 164.397 C 175 165.187, 174.438 166.034, 173.750 166.280 C 173.063 166.525, 172.827 167.077, 173.226 167.506 C 173.625 167.934, 174.527 167.808, 175.230 167.224 C 175.933 166.641, 178.047 166.014, 179.927 165.832 C 184.077 165.429, 184.567 164.286, 181.999 161 C 180.621 159.238, 180.003 158.943, 179.904 160" stroke="none" fill="#232073" fill-rule="evenodd"/></svg>