<?xml version="1.0" standalone="no"?>
<!DOCTYPE svg PUBLIC "-//W3C//DTD SVG 20010904//EN"
 "http://www.w3.org/TR/2001/REC-SVG-20010904/DTD/svg10.dtd">
<svg version="1.0" xmlns="http://www.w3.org/2000/svg"
 width="100.000000pt" height="85.000000pt" viewBox="0 0 100.000000 85.000000"
 preserveAspectRatio="xMidYMid meet">

<g transform="translate(0.000000,85.000000) scale(0.100000,-0.100000)"
fill="#000000" stroke="none">
<path d="M848 803 c-54 -82 -60 -93 -55 -93 4 0 18 20 71 103 10 15 16 27 13
27 -2 0 -15 -17 -29 -37z"/>
<path d="M882 716 c-39 -65 -39 -75 -7 -122 49 -73 59 -185 19 -237 -10 -13
-31 -40 -46 -58 -16 -22 -29 -52 -33 -84 l-6 -50 52 80 c101 154 146 278 134
370 -6 49 -50 146 -70 152 -6 2 -25 -21 -43 -51z"/>
<path d="M76 678 c-80 -93 -94 -202 -38 -301 40 -71 89 -107 170 -128 80 -20
84 -28 51 -124 -20 -61 -21 -66 -5 -90 9 -13 28 -28 42 -31 33 -8 128 20 195
58 l52 30 -44 20 c-24 10 -53 27 -64 37 -11 10 -33 21 -48 25 -44 10 -52 42
-28 111 24 68 26 96 9 113 -19 19 -39 14 -108 -28 -36 -22 -72 -40 -82 -40
-22 0 -68 56 -68 83 0 35 44 118 88 168 l41 46 -58 47 c-33 25 -62 46 -64 46
-3 0 -22 -19 -41 -42z m414 -588 c0 -5 -7 -10 -15 -10 -8 0 -15 5 -15 10 0 6
7 10 15 10 8 0 15 -4 15 -10z m-60 -30 c0 -5 -7 -10 -15 -10 -8 0 -15 5 -15
10 0 6 7 10 15 10 8 0 15 -4 15 -10z"/>
<path d="M622 683 c-20 -30 -52 -88 -52 -97 0 -3 23 -17 50 -31 103 -52 169
-136 170 -216 0 -41 -17 -60 -73 -84 -60 -25 -70 -20 -42 21 34 50 33 95 -4
136 -26 30 -35 33 -85 33 -47 0 -59 -4 -85 -29 -39 -38 -101 -156 -101 -194 0
-56 90 -112 180 -112 76 0 118 28 195 133 21 29 24 36 10 31 -13 -5 -16 -4
-11 4 4 7 13 12 20 12 18 0 68 113 74 167 9 81 -63 185 -164 236 -23 12 -31
13 -30 4 0 -7 -3 -12 -9 -12 -5 0 -9 6 -9 13 3 21 -14 13 -34 -15z m108 -24
c0 -5 -7 -9 -15 -9 -15 0 -20 12 -9 23 8 8 24 -1 24 -14z m52 -41 c-12 -12
-35 -1 -27 12 3 5 13 6 21 3 10 -4 12 -9 6 -15z m43 -58 c-6 -9 -9 -9 -16 1
-10 17 0 34 13 21 6 -6 7 -16 3 -22z m30 -58 c-8 -8 -25 10 -19 20 4 6 9 5 15
-3 4 -7 6 -15 4 -17z m5 -51 c0 -6 -4 -13 -10 -16 -5 -3 -10 1 -10 9 0 9 5 16
10 16 6 0 10 -4 10 -9z m-258 -23 c-9 -9 -15 -9 -24 0 -9 9 -7 12 12 12 19 0
21 -3 12 -12z m-80 -20 c-7 -7 -12 -8 -12 -2 0 6 3 14 7 17 3 4 9 5 12 2 2 -3
-1 -11 -7 -17z m146 -7 c3 -8 -1 -12 -9 -9 -7 2 -15 10 -17 17 -3 8 1 12 9 9
7 -2 15 -10 17 -17z m172 -21 c0 -5 -4 -10 -10 -10 -5 0 -10 5 -10 10 0 6 5
10 10 10 6 0 10 -4 10 -10z m-150 -30 c0 -5 -2 -10 -4 -10 -3 0 -8 5 -11 10
-3 6 -1 10 4 10 6 0 11 -4 11 -10z m130 -14 c0 -3 -4 -8 -10 -11 -5 -3 -10 -1
-10 4 0 6 5 11 10 11 6 0 10 -2 10 -4z m-233 -57 c40 -31 48 -59 17 -59 -17 0
-18 17 -1 23 6 2 -2 7 -18 11 -17 4 -44 18 -60 31 l-30 24 26 1 c14 0 44 -14
66 -31z m-47 -19 c0 -5 -4 -10 -10 -10 -5 0 -10 5 -10 10 0 6 5 10 10 10 6 0
10 -4 10 -10z m202 -22 c-7 -7 -12 -8 -12 -2 0 14 12 26 19 19 2 -3 -1 -11 -7
-17z m-52 -18 c0 -5 -7 -10 -15 -10 -8 0 -15 5 -15 10 0 6 7 10 15 10 8 0 15
-4 15 -10z"/>
<path d="M442 643 c-11 -16 -29 -47 -41 -70 -20 -41 -20 -42 -1 -48 11 -3 29
-18 40 -32 11 -14 22 -24 24 -22 2 2 18 26 35 53 43 69 41 110 -6 135 -29 15
-29 15 -51 -16z"/>
<path d="M97 213 c-13 -21 -32 -53 -41 -70 -15 -30 -15 -33 0 -33 9 0 29 -13
44 -30 l28 -30 30 48 c51 81 53 119 6 140 -37 17 -41 16 -67 -25z"/>
</g>
</svg>
