<?xml version="1.0" encoding="utf-8"?>
<!-- Generator: Adobe Illustrator 27.0.1, SVG Export Plug-In . SVG Version: 6.00 Build 0)  -->
<svg version="1.1" id="Layer_1" xmlns="http://www.w3.org/2000/svg" xmlns:xlink="http://www.w3.org/1999/xlink" x="0px" y="0px"
	 viewBox="0 0 117 117" style="enable-background:new 0 0 117 117;" xml:space="preserve">
<style type="text/css">
	.st0{fill:#006D77;}
	.st1{fill:#FFFFFF;}
</style>
<g>
	<path class="st0" d="M117,58.3L117,58.3c0,32.2-26.1,58.3-58.3,58.3h-0.4C26.1,116.6,0,90.5,0,58.3l0,0C0,26.1,26.1,0,58.3,0h0.4
		C90.9,0,117,26.1,117,58.3z"/>
</g>
<path class="st1" d="M43.8,52.4c-1.5,1.5-2.5,3.6-2.5,5.8c0,2.1,0.8,4.2,2.5,5.8l8.4,8.4c0.6,0.6,1.5,1,2.5,1c0.8,0,1.9-0.4,2.5-1
	c0.6-0.6,1-1.5,1-2.5c0-0.8-0.4-1.9-1-2.5l-5.6-5.6h20.7c0.8,0,1.9-0.4,2.5-1c0.6-0.6,1-1.5,1-2.5c0-0.8-0.4-1.9-1-2.5
	c-0.6-0.6-1.5-1-2.5-1H51.5l5.6-5.6c0.6-0.6,1-1.5,1-2.5c0-0.8-0.4-1.9-1-2.5c-0.6-0.6-1.5-1-2.5-1c-1,0-1.9,0.4-2.5,1L43.8,52.4
	L43.8,52.4z"/>
</svg>
